<?xml version="1.0" encoding="UTF-8"?>
<svg version="1.1" xmlns="http://www.w3.org/2000/svg" width="134" height="134">
<path d="M0 0 C0.66 0 1.32 0 2 0 C2.70125 0.7425 3.4025 1.485 4.125 2.25 C7.97869873 5.93614661 11.74385818 8.64734926 17.1640625 9.234375 C23.00017331 8.9456628 27.13926598 6.4660594 31.93359375 3.27734375 C34 2 34 2 36 2 C37.37212301 3.53195272 38.6715446 5.12921081 39.9375 6.75 C43.86306446 11.68244626 47.97968483 16.32587244 52.36889648 20.85058594 C55.06891474 23.70487696 57.2070822 26.10199188 58 30 C56.953125 32.8671875 56.953125 32.8671875 55.25 35.875 C50.45056694 44.91374923 48.92870944 51.84745664 51 62 C52.50342952 66.32349577 54.42909615 70.44307127 56.40625 74.56640625 C60.09905259 82.52222358 60.59537984 92.03153134 57.90625 100.40625 C52.33639933 112.13848865 44.10926158 118.5790721 32 123 C27.74353782 124.25477573 23.44342689 125.29820198 19.10473633 126.22705078 C14.25156457 127.29021434 10.15355766 128.68900953 5.80224609 131.10864258 C3.79010605 132.10380965 2.23878857 132.73934826 0 133 C-2.19140625 132.109375 -2.19140625 132.109375 -4.5625 130.75 C-9.8983601 127.91776927 -15.15073154 126.40906747 -21 125 C-33.37169987 122.01970255 -45.13137856 117.51580391 -52.63671875 106.625 C-57.25523914 98.57898167 -57.86262843 91.25192685 -57 82 C-55.35096653 76.19336477 -52.9059138 70.84418167 -50.25 65.4375 C-46.61624437 55.44467203 -48.02462993 46.67296888 -52 37 C-52.75714018 35.64676216 -53.54322917 34.30869063 -54.375 33 C-56 30 -56 30 -55.41796875 27.6640625 C-53.69696631 24.43066397 -51.46444416 21.9808438 -48.9375 19.375 C-43.66724184 13.7970983 -38.78574717 8.00286312 -34 2 C-30.95785344 3.15767694 -28.42444318 4.35172917 -25.625 6.0625 C-21.40074017 8.48416619 -17.67235919 9.48673442 -12.76953125 8.59375 C-6.9804435 6.96465998 -4.00655933 4.39744317 0 0 Z " fill="#FB0000" transform="translate(66,1)"/>
<path d="M0 0 C2.26843965 1.13421982 4.48746627 2.28057652 6.6875 3.546875 C12.92244702 6.28201685 21.2020421 6.41358971 27.61328125 4.02734375 C29.41378941 3.02706144 31.20752556 2.01460817 33 1 C36.06877324 2.042532 37.8522457 3.66833486 39.91015625 6.1171875 C40.68262695 7.02791016 40.68262695 7.02791016 41.47070312 7.95703125 C41.99599609 8.58996094 42.52128906 9.22289062 43.0625 9.875 C43.85624023 10.81279297 43.85624023 10.81279297 44.66601562 11.76953125 C46.12523093 13.50154841 47.56445792 15.24836054 49 17 C49.63035156 17.74765625 50.26070313 18.4953125 50.91015625 19.265625 C52 21 52 21 51.375 23.875 C50 27 50 27 48.48828125 29.671875 C46.72288387 33.61969276 46.23288784 37.10941328 45.8125 41.375 C45.73064453 42.11105469 45.64878906 42.84710938 45.56445312 43.60546875 C45.36607444 45.40254625 45.18159423 47.20114893 45 49 C42.89646505 49.0810206 40.79204048 49.13919907 38.6875 49.1875 C37.51574219 49.22230469 36.34398438 49.25710937 35.13671875 49.29296875 C31.48441793 48.95184476 31.4095163 48.47503856 29 46 C27.50974373 45.14122273 25.98431467 44.34199169 24.4375 43.58984375 C23.55835937 43.15736328 22.67921875 42.72488281 21.7734375 42.27929688 C20.85820313 41.83650391 19.94296875 41.39371094 19 40.9375 C17.18664475 40.05253156 15.37410871 39.16588204 13.5625 38.27734375 C12.75941406 37.88796631 11.95632812 37.49858887 11.12890625 37.09741211 C9 36 9 36 6 34 C6 38.95 6 43.9 6 49 C4.68 49 3.36 49 2 49 C1.95101562 48.15695313 1.90203125 47.31390625 1.8515625 46.4453125 C1.77679688 45.34960938 1.70203125 44.25390625 1.625 43.125 C1.52058594 41.48917969 1.52058594 41.48917969 1.4140625 39.8203125 C1.26746509 36.86953526 1.26746509 36.86953526 -1 35 C-3.44012949 34.75712511 -3.44012949 34.75712511 -6.125 34.875 C-7.03507812 34.89304688 -7.94515625 34.91109375 -8.8828125 34.9296875 C-9.58148438 34.95289063 -10.28015625 34.97609375 -11 35 C-11.268125 35.886875 -11.53625 36.77375 -11.8125 37.6875 C-12.91710819 40.76877548 -14.22849144 43.26221405 -16 46 C-18.46800047 44.84826645 -20.04783565 43.95216435 -22 42 C-24.61580479 42.3269756 -26.64078137 42.82039068 -29 44 C-29.33 45.65 -29.66 47.3 -30 49 C-34.29 49 -38.58 49 -43 49 C-43.12955078 47.31583984 -43.12955078 47.31583984 -43.26171875 45.59765625 C-44.17635284 34.5574631 -44.17635284 34.5574631 -49.07421875 24.76171875 C-50 23 -50 23 -49.9375 21.1015625 C-48.59057299 18.08220113 -46.57996775 16.08376263 -44.3125 13.6875 C-40.43359721 9.53590534 -36.66523471 5.34040953 -33 1 C-32.29875 1.28875 -31.5975 1.5775 -30.875 1.875 C-29.92625 2.24625 -28.9775 2.6175 -28 3 C-27.154375 3.37125 -26.30875 3.7425 -25.4375 4.125 C-16.68945526 6.35177502 -8.78885933 5.60671253 -1 1 C-0.67 0.67 -0.34 0.34 0 0 Z " fill="#FEFAF9" transform="translate(66,9)"/>
<path d="M0 0 C0.66 0 1.32 0 2 0 C2.70125 0.7425 3.4025 1.485 4.125 2.25 C7.97869873 5.93614661 11.74385818 8.64734926 17.1640625 9.234375 C23.00017331 8.9456628 27.13926598 6.4660594 31.93359375 3.27734375 C34 2 34 2 36 2 C37.37212301 3.53195272 38.6715446 5.12921081 39.9375 6.75 C43.86306446 11.68244626 47.97968483 16.32587244 52.36889648 20.85058594 C55.06891474 23.70487696 57.2070822 26.10199188 58 30 C56.953125 32.8671875 56.953125 32.8671875 55.25 35.875 C50.45056694 44.91374923 48.92870944 51.84745664 51 62 C52.50342952 66.32349577 54.42909615 70.44307127 56.40625 74.56640625 C60.09905259 82.52222358 60.59537984 92.03153134 57.90625 100.40625 C52.33639933 112.13848865 44.10926158 118.5790721 32 123 C27.74353782 124.25477573 23.44342689 125.29820198 19.10473633 126.22705078 C14.25156457 127.29021434 10.15355766 128.68900953 5.80224609 131.10864258 C3.79010605 132.10380965 2.23878857 132.73934826 0 133 C-2.19140625 132.109375 -2.19140625 132.109375 -4.5625 130.75 C-9.8983601 127.91776927 -15.15073154 126.40906747 -21 125 C-33.37169987 122.01970255 -45.13137856 117.51580391 -52.63671875 106.625 C-57.25523914 98.57898167 -57.86262843 91.25192685 -57 82 C-55.35096653 76.19336477 -52.9059138 70.84418167 -50.25 65.4375 C-46.61624437 55.44467203 -48.02462993 46.67296888 -52 37 C-52.75714018 35.64676216 -53.54322917 34.30869063 -54.375 33 C-56 30 -56 30 -55.41796875 27.6640625 C-53.69696631 24.43066397 -51.46444416 21.9808438 -48.9375 19.375 C-43.66724184 13.7970983 -38.78574717 8.00286312 -34 2 C-30.95785344 3.15767694 -28.42444318 4.35172917 -25.625 6.0625 C-21.40074017 8.48416619 -17.67235919 9.48673442 -12.76953125 8.59375 C-6.9804435 6.96465998 -4.00655933 4.39744317 0 0 Z M-5.24609375 11.02734375 C-10.43593115 13.90544957 -16.24363558 13.4399294 -22 13 C-24.58733595 12.25224156 -26.58926824 11.25558946 -29 10 C-30.32577701 9.63777878 -31.65829121 9.29783622 -33 9 C-36.22255183 12.49205349 -39.43294032 15.99456982 -42.63183594 19.50830078 C-43.77577249 20.7555264 -44.93667411 21.98716398 -46.1015625 23.21484375 C-47.93102438 25.13519626 -47.93102438 25.13519626 -50 28 C-49.55906977 31.65972094 -47.69017465 34.62152105 -45.9375 37.8046875 C-42.63159766 45.54600881 -42.17505779 57.37394129 -44.78955078 65.43408203 C-46.13194637 68.73048945 -47.62341375 71.94409892 -49.12988281 75.16796875 C-52.81976047 83.27700179 -53.53556066 90.68560626 -50.9375 99.3125 C-47.04685091 107.93010593 -39.80310532 113.66737924 -31.2109375 117.12109375 C-26.2971342 118.85425693 -21.52539046 120.15073597 -16.375 120.9375 C-11.3900964 121.71549074 -7.60893014 123.50974883 -3.2890625 126.07421875 C0.2028977 127.48649617 2.61410563 126.55004368 6.0078125 125.203125 C7.05582031 124.73132813 7.05582031 124.73132813 8.125 124.25 C13.93495906 121.83501702 19.93820998 120.37246351 26.04736328 118.92675781 C36.72134776 116.29735045 45.76135837 111.33160199 52 102 C55.45258844 94.95244833 55.61097471 86.96717202 53.20898438 79.56103516 C51.59736049 75.35837868 49.76559728 71.28503076 47.84765625 67.21484375 C45.05040064 61.10916577 44.79740678 55.87470932 45.625 49.25 C45.70911133 48.54770264 45.79322266 47.84540527 45.87988281 47.12182617 C46.62986283 41.80417468 48.23400625 37.65729253 51.171875 33.11328125 C52.22983289 30.98921274 52.22983289 30.98921274 51.4765625 28.60546875 C49.61101361 25.31361395 47.23364731 22.70475537 44.625 20 C43.65734418 18.98059788 42.69117639 17.95978103 41.7265625 16.9375 C41.26540039 16.44894531 40.80423828 15.96039062 40.32910156 15.45703125 C38.44333912 13.38975897 36.71439136 11.21002108 35 9 C34.278125 9.28875 33.55625 9.5775 32.8125 9.875 C31.884375 10.24625 30.95625 10.6175 30 11 C29.2678125 11.34417969 28.535625 11.68835938 27.78125 12.04296875 C21.6904138 14.13883233 13.32170149 14.38565164 7.3125 11.87890625 C5.1875 10.5 5.1875 10.5 3.41796875 9.09375 C0.20166755 6.61285651 -2.20711442 9.19607975 -5.24609375 11.02734375 Z " fill="#FDA30A" transform="translate(66,1)"/>
<path d="M0 0 C0.66 0 1.32 0 2 0 C2.70125 0.7425 3.4025 1.485 4.125 2.25 C7.97869873 5.93614661 11.74385818 8.64734926 17.1640625 9.234375 C23.00017331 8.9456628 27.13926598 6.4660594 31.93359375 3.27734375 C34 2 34 2 36 2 C37.37212301 3.53195272 38.6715446 5.12921081 39.9375 6.75 C43.86306446 11.68244626 47.97968483 16.32587244 52.36889648 20.85058594 C55.06891474 23.70487696 57.2070822 26.10199188 58 30 C56.953125 32.8671875 56.953125 32.8671875 55.25 35.875 C50.45931859 44.89726728 48.90140472 51.86217052 51 62 C52.32213777 65.52853488 53.90123571 68.929732 55.64819336 72.26733398 C58.16686551 77.30919319 58.11668032 80.47181886 57 86 C52.54814835 82.37849372 50.91382064 77.79748159 48.8125 72.625 C48.45736328 71.78710938 48.10222656 70.94921875 47.73632812 70.0859375 C44.75432749 62.88839518 43.65008096 57.0540215 44.625 49.25 C44.70911133 48.54770264 44.79322266 47.84540527 44.87988281 47.12182617 C45.62986283 41.80417468 47.23400625 37.65729253 50.171875 33.11328125 C51.2290997 30.99003228 51.2290997 30.99003228 50.48046875 28.609375 C48.59849365 25.29233181 46.19233117 22.66333544 43.5625 19.9375 C40.52971039 16.74529964 37.54919077 13.60343237 35 10 C34.278125 10.28875 33.55625 10.5775 32.8125 10.875 C31.884375 11.24625 30.95625 11.6175 30 12 C29.2678125 12.34417969 28.535625 12.68835937 27.78125 13.04296875 C21.79873004 15.10156059 13.25811618 15.50336677 7.41796875 12.80859375 C6.11432774 11.89380169 4.82576097 10.95686964 3.55859375 9.9921875 C1.93516393 8.70735319 1.93516393 8.70735319 -0.5625 9.5 C-1.366875 9.995 -2.17125 10.49 -3 11 C-9.62863879 14.51723691 -16.85266841 15.51662449 -24.1875 13.35546875 C-25.82376342 12.6396035 -27.41596523 11.82501811 -29 11 C-30.32577701 10.63777878 -31.65829121 10.29783622 -33 10 C-38.73417866 16.27644505 -44.43668753 22.570874 -50 29 C-50.33 28.01 -50.66 27.02 -51 26 C-51.99 26.33 -52.98 26.66 -54 27 C-54.33 27.99 -54.66 28.98 -55 30 C-55.33 29.34 -55.66 28.68 -56 28 C-50.59324468 21.24808575 -45.0464975 14.75011397 -39.1640625 8.41015625 C-37.30779022 6.34279164 -35.6208858 4.25355413 -34 2 C-30.95237125 3.10822864 -28.40773284 4.36194104 -25.625 6.0625 C-21.40074017 8.48416619 -17.67235919 9.48673442 -12.76953125 8.59375 C-6.9804435 6.96465998 -4.00655933 4.39744317 0 0 Z " fill="#FDC614" transform="translate(66,1)"/>
<path d="M0 0 C-0.33 19.47 -0.66 38.94 -1 59 C-3.31 58.34 -5.62 57.68 -8 57 C-8.495 38.685 -8.495 38.685 -9 20 C-10.98 22.97 -10.98 22.97 -13 26 C-15.91517292 24.92598892 -17.77810176 24.22189824 -20 22 C-20.33 31.9 -20.66 41.8 -21 52 C-27 50 -27 50 -29 48 C-29.2366905 45.1666921 -29.35234705 42.43435724 -29.37109375 39.59765625 C-29.38012222 38.76415146 -29.3891507 37.93064667 -29.39845276 37.07188416 C-29.41297184 35.30748089 -29.42184611 33.54302359 -29.42553711 31.77856445 C-29.43744025 29.07606563 -29.48661129 26.37584508 -29.53710938 23.67382812 C-29.54657258 21.96094867 -29.55380811 20.24805516 -29.55859375 18.53515625 C-29.57812607 17.7257106 -29.59765839 16.91626495 -29.61778259 16.08229065 C-29.59936523 13.79711914 -29.59936523 13.79711914 -29 10 C-26.49898986 7.87468789 -25.17319911 6.93098829 -21.875 7.125 C-19.77047843 8.10711007 -18.59309221 9.3344945 -17 11 C-16.34 11 -15.68 11 -15 11 C-14.67386719 10.28972656 -14.34773438 9.57945313 -14.01171875 8.84765625 C-13.57472656 7.92855469 -13.13773438 7.00945313 -12.6875 6.0625 C-12.25824219 5.14597656 -11.82898438 4.22945312 -11.38671875 3.28515625 C-8.64072472 -1.2399325 -5.25399373 0 0 0 Z " fill="#EFB003" transform="translate(65,43)"/>
<path d="M0 0 C0.99 0.33 1.98 0.66 3 1 C2.67 1.66 2.34 2.32 2 3 C1.88042526 4.81718084 1.8227532 6.63857835 1.79467773 8.45947266 C1.77473251 9.60050446 1.75478729 10.74153625 1.73423767 11.91714478 C1.70916893 13.77186905 1.70916893 13.77186905 1.68359375 15.6640625 C1.66281265 16.92640717 1.64203156 18.18875183 1.62062073 19.48934937 C1.56622074 22.84632045 1.51599764 26.20330189 1.46777344 29.56036377 C1.41754958 32.98561065 1.36186814 36.41076829 1.30664062 39.8359375 C1.19938141 46.55722061 1.0976256 53.27857044 1 60 C1.5347998 59.69707031 2.06959961 59.39414063 2.62060547 59.08203125 C5.03627792 57.71694793 7.45556735 56.3584068 9.875 55 C10.71675781 54.52304688 11.55851562 54.04609375 12.42578125 53.5546875 C13.23144531 53.10351562 14.03710938 52.65234375 14.8671875 52.1875 C15.61081543 51.76855469 16.35444336 51.34960938 17.12060547 50.91796875 C19 50 19 50 21 50 C20.67 46.7 20.34 43.4 20 40 C21.32 40 22.64 40 24 40 C26 42 26 42 26.1953125 44.6015625 C26.17210937 45.59929687 26.14890625 46.59703125 26.125 47.625 C26.10695312 48.62789062 26.08890625 49.63078125 26.0703125 50.6640625 C26.04710937 51.43492188 26.02390625 52.20578125 26 53 C25.45061768 53.28721924 24.90123535 53.57443848 24.33520508 53.87036133 C21.82682556 55.18286397 19.3196554 56.49766066 16.8125 57.8125 C15.94818359 58.26431641 15.08386719 58.71613281 14.19335938 59.18164062 C10.74498971 60.99170439 7.33692047 62.79432437 4.01171875 64.82421875 C2 66 2 66 0 66 C0 49.5 0 33 0 16 C-1.32 16 -2.64 16 -4 16 C-4 32.17 -4 48.34 -4 65 C-13 63 -13 63 -15.0480957 60.72045898 C-16.08257242 57.76401527 -16.31260408 55.59781191 -16.23046875 52.47265625 C-16.22982422 51.43302734 -16.22917969 50.39339844 -16.22851562 49.32226562 C-16.20121681 47.15266013 -16.15440093 44.98321074 -16.08789062 42.81445312 C-16.09369141 41.77353516 -16.09949219 40.73261719 -16.10546875 39.66015625 C-16.08637451 38.71793213 -16.06728027 37.77570801 -16.04760742 36.80493164 C-17.1408954 32.71804644 -17.1408954 32.71804644 -25 28 C-25 37.9 -25 47.8 -25 58 C-34 54 -34 54 -35.5625 51.25 C-35.706875 50.5075 -35.85125 49.765 -36 49 C-30.25 50.875 -30.25 50.875 -28 52 C-28 41.77 -28 31.54 -28 21 C-26.02 22.32 -24.04 23.64 -22 25 C-21.34 25 -20.68 25 -20 25 C-18.68 22.69 -17.36 20.38 -16 18 C-15.67 18 -15.34 18 -15 18 C-15 30.87 -15 43.74 -15 57 C-12.69 57.66 -10.38 58.32 -8 59 C-8 39.86 -8 20.72 -8 1 C-6.68 1.66 -5.36 2.32 -4 3 C-4 6.96 -4 10.92 -4 15 C-2.68 15 -1.36 15 0 15 C0 10.05 0 5.1 0 0 Z " fill="#150E03" transform="translate(72,43)"/>
<path d="M0 0 C3.97069515 0.53658043 7.48416819 1.41198573 10.3125 4.375 C12.87851159 6.84597413 15.87980254 8.29272214 19 10 C19 13.96 19 17.92 19 22 C15.7 20.35 12.4 18.7 9 17 C8.67 26.24 8.34 35.48 8 45 C9.98 43.68 11.96 42.36 14 41 C14.66 41 15.32 41 16 41 C16 40.34 16 39.68 16 39 C16.99 39 17.98 39 19 39 C19 41.97 19 44.94 19 48 C16.04447033 49.67181476 13.08583038 51.33762179 10.125 53 C9.28324219 53.47695312 8.44148438 53.95390625 7.57421875 54.4453125 C6.36572266 55.12207031 6.36572266 55.12207031 5.1328125 55.8125 C4.38918457 56.23144531 3.64555664 56.65039062 2.87939453 57.08203125 C1 58 1 58 -1 58 C-1.02312883 50.58540058 -1.04091785 43.17080889 -1.05181217 35.75618076 C-1.05703982 32.31359652 -1.06413531 28.87103688 -1.07543945 25.4284668 C-1.08834235 21.47444957 -1.09322918 17.52044244 -1.09765625 13.56640625 C-1.10281754 12.32476212 -1.10797882 11.08311798 -1.11329651 9.80384827 C-1.11337204 8.66274094 -1.11344757 7.52163361 -1.11352539 6.34594727 C-1.115746 5.335569 -1.11796661 4.32519073 -1.12025452 3.28419495 C-1 1 -1 1 0 0 Z " fill="#F2AD01" transform="translate(74,45)"/>
<path d="M0 0 C1.98 1.32 3.96 2.64 6 4 C6.66 4 7.32 4 8 4 C9.32 2.68 10.64 1.36 12 0 C12 3.96 12 7.92 12 12 C9 12 9 12 3 7 C3 16.9 3 26.8 3 37 C-6 33 -6 33 -7.5625 30.25 C-7.706875 29.5075 -7.85125 28.765 -8 28 C-2.25 29.875 -2.25 29.875 0 31 C0 20.77 0 10.54 0 0 Z " fill="#060402" transform="translate(44,64)"/>
<path d="M0 0 C3.875 1.875 3.875 1.875 5 3 C5.07226502 4.85287502 5.0838122 6.70833878 5.0625 8.5625 C5.05347656 9.57441406 5.04445313 10.58632812 5.03515625 11.62890625 C5.02355469 12.41136719 5.01195313 13.19382812 5 14 C1.96235911 15.6326083 -1.08078323 17.25469108 -4.125 18.875 C-4.9809375 19.33519531 -5.836875 19.79539062 -6.71875 20.26953125 C-11.07134722 22.57975593 -15.23626578 24.64116434 -20 26 C-20.02734375 23.83203125 -20.02734375 23.83203125 -19 21 C-16.39776983 18.86303343 -13.50842924 17.30285519 -10.5625 15.6875 C-9.77294922 15.23310547 -8.98339844 14.77871094 -8.16992188 14.31054688 C-2.33041588 11 -2.33041588 11 0 11 C-0.12568359 9.93458984 -0.12568359 9.93458984 -0.25390625 8.84765625 C-0.35574219 7.92855469 -0.45757812 7.00945312 -0.5625 6.0625 C-0.66691406 5.14597656 -0.77132812 4.22945313 -0.87890625 3.28515625 C-0.91886719 2.53105469 -0.95882812 1.77695313 -1 1 C-0.67 0.67 -0.34 0.34 0 0 Z " fill="#0A0401" transform="translate(93,82)"/>
<path d="M0 0 C8 0 8 0 10.5 1.125 C12 3 12 3 12.4375 6 C12 9 12 9 10.8125 10.875 C8.43963721 12.34781139 6.74086056 12.22223194 4 12 C4 13.98 4 15.96 4 18 C2.68 18 1.36 18 0 18 C0 12.06 0 6.12 0 0 Z " fill="#FE1C19" transform="translate(87,20)"/>
<path d="M0 0 C3.96 1.98 3.96 1.98 8 4 C7.01 4.33 6.02 4.66 5 5 C5.05124023 5.62044189 5.10248047 6.24088379 5.15527344 6.88012695 C5.37513803 9.68971244 5.56290355 12.50055047 5.75 15.3125 C5.87181641 16.77719727 5.87181641 16.77719727 5.99609375 18.27148438 C6.08310547 19.67817383 6.08310547 19.67817383 6.171875 21.11328125 C6.2347168 21.97735596 6.29755859 22.84143066 6.36230469 23.73168945 C6 26 6 26 4.11425781 27.80541992 C2 29 2 29 0 29 C0 19.43 0 9.86 0 0 Z " fill="#070302" transform="translate(82,61)"/>
<path d="M0 0 C3.63 0 7.26 0 11 0 C11 0.66 11 1.32 11 2 C8.69 2 6.38 2 4 2 C4 3.32 4 4.64 4 6 C6.31 6 8.62 6 11 6 C11 6.99 11 7.98 11 9 C8.36 9 5.72 9 3 9 C3 10.32 3 11.64 3 13 C5.64 13 8.28 13 11 13 C11 13.99 11 14.98 11 16 C7.37 16 3.74 16 0 16 C0 10.72 0 5.44 0 0 Z " fill="#FE0604" transform="translate(59,21)"/>
<path d="M0 0 C5.51683341 1.55602994 10.05964123 4.15555101 15 7 C15 11.62 15 16.24 15 21 C13.02 20.34 11.04 19.68 9 19 C9.33 14.71 9.66 10.42 10 6 C7.525 5.01 7.525 5.01 5 4 C2.1875 2.4375 2.1875 2.4375 0 1 C0 0.67 0 0.34 0 0 Z " fill="#0F0B08" transform="translate(83,49)"/>
<path d="M0 0 C1.65 0 3.3 0 5 0 C5 5.28 5 10.56 5 16 C3.35 16 1.7 16 0 16 C0 10.72 0 5.44 0 0 Z " fill="#FD0501" transform="translate(35,21)"/>
<path d="M0 0 C0.99 0.33 1.98 0.66 3 1 C2.67 1.66 2.34 2.32 2 3 C1.90855217 5.0016875 1.88248303 7.00648256 1.88647461 9.01025391 C1.88655014 10.27141022 1.88662567 11.53256653 1.88670349 12.8319397 C1.89181051 14.21348103 1.89702651 15.59502196 1.90234375 16.9765625 C1.90420856 18.3861791 1.90563217 19.79579634 1.90663147 21.20541382 C1.91045167 24.91753932 1.92027772 28.62962578 1.93133545 32.34173584 C1.94156025 36.12886019 1.94613138 39.91599083 1.95117188 43.703125 C1.96190042 51.13543448 1.97897089 58.56771177 2 66 C1.34 66 0.68 66 0 66 C0 49.5 0 33 0 16 C-1.32 15.67 -2.64 15.34 -4 15 C-2.68 15 -1.36 15 0 15 C0 10.05 0 5.1 0 0 Z " fill="#741904" transform="translate(72,43)"/>
<path d="M0 0 C0.99 0.33 1.98 0.66 3 1 C2.67 1.66 2.34 2.32 2 3 C1.76725791 5.87910588 1.58027243 8.74146495 1.4375 11.625 C1.39431641 12.42679688 1.35113281 13.22859375 1.30664062 14.0546875 C1.20048543 16.0362511 1.09973145 18.01810271 1 20 C0.67 18.68 0.34 17.36 0 16 C-1.32 15.67 -2.64 15.34 -4 15 C-2.68 15 -1.36 15 0 15 C0 10.05 0 5.1 0 0 Z " fill="#957454" transform="translate(72,43)"/>
<path d="M0 0 C2.475 0.495 2.475 0.495 5 1 C4.67 2.65 4.34 4.3 4 6 C2.68 6 1.36 6 0 6 C0 4.02 0 2.04 0 0 Z " fill="#FFDDDD" transform="translate(91,23)"/>
<path d="M0 0 C4.875 1.75 4.875 1.75 6 4 C5.113125 3.896875 4.22625 3.79375 3.3125 3.6875 C-1.00684858 4.09498572 -2.25642975 5.7722703 -5 9 C-5.66 8.67 -6.32 8.34 -7 8 C-4.69 5.36 -2.38 2.72 0 0 Z " fill="#FACD2D" transform="translate(32,3)"/>
</svg>
